<svg width="104" height="33" viewBox="0 0 104 33" fill="none" xmlns="http://www.w3.org/2000/svg">
<g id="Vector">
<g id="Vector_2">
<path d="M31.0384 10.4726C30.9801 10.1352 30.883 9.81376 30.7405 9.51807C30.5948 9.21916 30.4006 9.01668 30.1513 8.91062C29.9247 8.81099 29.5912 8.74028 29.1541 8.69849C28.7138 8.65671 28.2476 8.631 27.7522 8.62136C27.2633 8.61172 26.7809 8.61493 26.3083 8.62457C25.8323 8.63743 25.4697 8.6535 25.2107 8.67921C21.4195 8.90419 17.9714 9.64663 14.8601 10.9001C11.7488 12.1536 8.71839 13.8088 5.76894 15.8561L5.74951 15.8915L5.73332 15.84L5.76894 15.8561L5.89844 15.6215C5.947 15.5379 6.05384 15.3997 6.2222 15.2133C6.39055 15.0237 6.57509 14.818 6.7823 14.5898C6.98627 14.368 7.18052 14.1559 7.3683 13.9631C7.55285 13.7702 7.70178 13.6288 7.81186 13.542C9.41123 11.9704 11.098 10.4823 12.8787 9.08418C14.6594 7.68929 16.5016 6.33619 18.4118 5.03773C18.8197 4.75169 19.2276 4.49778 19.6323 4.27601C20.0338 4.05746 20.4676 3.83891 20.9241 3.63C21.1475 3.50786 21.3677 3.39859 21.5943 3.30859C21.8177 3.21539 22.0379 3.10611 22.2645 2.98398C22.3422 2.96148 22.4037 2.9197 22.4523 2.85863C22.5008 2.79756 22.5656 2.74614 22.6562 2.70436L22.4296 2.11298L21.9084 1.96514L22.4814 1.76587L22.2774 1.63731L22.0702 1.3384L22.1997 1.19056L21.7335 0.6956C21.7076 0.63132 21.6753 0.547756 21.6364 0.448121C21.5975 0.348487 21.5296 0.277779 21.4292 0.235996C21.2576 0.15886 21.0504 0.129934 20.8043 0.149218C20.5648 0.165288 20.3057 0.203856 20.0435 0.264923C19.8557 0.306705 19.6777 0.354915 19.4996 0.412767H19.4963C19.4931 0.412767 19.4834 0.415981 19.4802 0.415981C19.4089 0.435265 19.3377 0.457763 19.2697 0.480261C19.0204 0.563826 18.81 0.621678 18.6351 0.657032C18.6222 0.660246 18.6157 0.66346 18.606 0.66346C16.7832 1.32233 14.627 2.86185 14.627 2.86185C14.627 2.86185 14.6108 2.86506 14.5849 2.87149C13.6557 3.57214 12.746 4.27601 11.8556 4.97988C10.9329 5.70946 10.0329 6.49047 9.16841 7.31647C8.45938 7.9657 7.77301 8.62779 7.09311 9.30273C6.41969 9.98089 5.73979 10.6494 5.05666 11.3115C4.37677 11.9704 3.73896 12.6742 3.15619 13.4135C2.56695 14.1559 2.04246 14.9337 1.58596 15.75C1.03233 16.7367 0.847785 17.6142 1.04204 18.3695C1.2363 19.128 1.75431 19.8929 2.58638 20.6707L2.54752 20.6546C2.62522 20.796 2.67379 20.9021 2.69969 20.9664L2.97812 20.7993C3.68068 20.3172 4.37029 19.8093 5.04048 19.2822C5.71066 18.7519 6.40026 18.2441 7.10606 17.762C9.16193 16.3093 11.2308 15.0301 13.3093 13.9245C15.3878 12.8221 17.7189 11.9607 20.2993 11.3372C21.2317 11.1186 22.1738 10.9322 23.1225 10.7908C24.0711 10.6462 25.0229 10.5498 25.9845 10.5048C26.428 10.4823 26.8943 10.4951 27.3799 10.5433C27.8655 10.5915 28.3059 10.5658 28.7041 10.4662C28.2961 10.7523 27.8073 11.0287 27.2439 11.2858C26.6773 11.5461 26.1626 11.7936 25.6899 12.0218C24.2848 12.7482 22.925 13.5645 21.5943 14.4612C20.2669 15.3579 19.0107 16.335 17.829 17.3924C16.6473 18.4498 15.5594 19.5683 14.5687 20.7543C13.578 21.937 12.7168 23.1744 11.9884 24.4729C11.5189 25.3085 11.1401 26.1892 10.8487 27.1212C10.5606 28.0469 10.5832 28.9853 10.92 29.9271C11.0851 30.4092 11.3473 30.8655 11.7067 31.3027C12.0693 31.7365 12.5096 32.0676 13.0341 32.2926C13.2834 32.4051 13.5521 32.4372 13.8338 32.3986C14.1219 32.3601 14.3809 32.2958 14.6173 32.209C13.7075 31.6723 13.2672 31.0359 13.2964 30.2935C13.3223 29.5542 13.5489 28.8086 13.9698 28.0629C14.2191 27.6226 14.4943 27.208 14.8051 26.8255C15.1159 26.4398 15.4332 26.0445 15.7537 25.6363C16.8771 24.2415 18.0524 22.8852 19.273 21.5706C20.4903 20.2561 21.8566 19.0508 23.3718 17.9645L25.9748 16.0618C26.2338 15.8754 26.6126 15.6183 27.1112 15.2872C27.6033 14.9562 28.1148 14.6059 28.6329 14.2298C29.1541 13.8538 29.6268 13.4938 30.0574 13.1467C30.4848 12.7996 30.76 12.5135 30.883 12.295C30.9931 12.0989 31.0578 11.8322 31.0772 11.4979C31.1129 11.154 31.0934 10.8165 31.0384 10.4726ZM20.8853 3.03862L20.9047 3.08683C20.8788 3.07718 20.8691 3.06111 20.8853 3.03862ZM18.5186 2.61758L18.6643 2.60151L18.4409 2.66579C18.4797 2.65294 18.5024 2.63686 18.5186 2.61758ZM6.20601 13.5806L6.39379 13.4135C6.41645 13.3685 6.43912 13.346 6.45854 13.3395C6.47797 13.3363 6.4974 13.3138 6.5233 13.2656L6.58157 13.2528C7.84423 11.8322 9.20403 10.5048 10.6609 9.26416C12.1146 8.02677 13.6266 6.81508 15.1871 5.63875C15.9577 5.04416 16.7606 4.49456 17.5991 3.99961C18.4344 3.50465 19.2989 3.04183 20.1924 2.61115C20.2798 2.56616 20.4061 2.5083 20.5745 2.43117C20.7396 2.35403 20.8885 2.34118 21.0115 2.39581C21.0374 2.40546 21.0569 2.42153 21.0763 2.44402C21.0957 2.46652 21.1184 2.48259 21.1411 2.49545C19.3053 3.16718 17.6121 4.07031 16.0645 5.19843C14.5104 6.32655 13.0373 7.50288 11.6387 8.72421C11.0915 9.19667 10.5412 9.68198 9.98105 10.1769C9.42742 10.6719 8.88026 11.1733 8.34606 11.6779C8.0482 11.9318 7.77301 12.2082 7.51076 12.5071C7.25175 12.806 6.93771 13.0503 6.58157 13.2495L6.56215 13.2817L6.39379 13.4135C6.37113 13.4585 6.34523 13.4874 6.32256 13.5034C6.29666 13.5195 6.274 13.5517 6.24486 13.5934L6.18982 13.6095L6.20601 13.5806ZM6.15421 13.677L6.07651 13.812C6.06356 13.8313 6.05384 13.8377 6.04089 13.8345C6.0247 13.8281 6.01499 13.8377 6.00204 13.857C6.0668 13.7541 6.11535 13.6931 6.15421 13.677ZM3.31807 19.7129L3.18857 19.7804L3.3375 19.6808L3.31807 19.7129ZM4.90126 18.5559L4.86241 18.543C4.82356 18.5527 4.78146 18.5462 4.7329 18.5269L4.86241 18.543L4.91745 18.5269L4.90126 18.5559ZM4.83327 15.2004L4.92392 15.0333L5.00162 14.9819C4.94011 15.0944 4.88507 15.1651 4.83327 15.2004ZM5.29948 14.7023L5.16998 14.8501L5.1117 14.8662L5.18293 14.8148C5.23149 14.728 5.28006 14.6798 5.31243 14.6669C5.31243 14.6123 5.33834 14.5416 5.39014 14.4548C5.46136 14.323 5.5941 14.2298 5.78188 14.1752L5.31567 14.6701L5.29948 14.7023ZM5.68476 17.9131L5.62648 17.9291C5.67504 17.8424 5.71713 17.7909 5.75598 17.7813L5.68476 17.9131ZM6.18335 17.5177L6.16392 17.4663C6.17687 17.447 6.19306 17.4406 6.21896 17.4503L6.18335 17.5177ZM27.1112 9.01668C27.1727 9.01668 27.2374 9.01347 27.3054 9.00061C27.3734 8.99097 27.4317 8.9974 27.4803 9.01668H27.1112C27.0335 9.03918 26.972 9.03918 26.9234 9.0199L27.1112 9.01668ZM26.2985 9.05525C26.428 9.04561 26.564 9.02632 26.6968 9.00383L26.7356 9.0199C26.5737 9.02954 26.4248 9.04561 26.2888 9.07132C26.1561 9.0906 26.0104 9.09703 25.8615 9.08739C26.0201 9.07453 26.169 9.06489 26.2985 9.05525ZM25.4891 9.08739L25.6186 9.10346L25.4697 9.11953L25.4309 9.10346L25.4891 9.08739ZM24.5211 9.64984L24.56 9.66591L24.5017 9.68198L24.5211 9.64984ZM24.1261 9.19024C24.152 9.19988 24.1844 9.19988 24.2232 9.19024L23.9642 9.24166L24.1261 9.19024ZM24.2427 9.65306L24.0937 9.66913C24.1067 9.64663 24.1326 9.62734 24.1714 9.6177L24.2427 9.65306ZM23.9804 9.69805C23.9416 9.71091 23.8833 9.69805 23.8121 9.66913C23.8509 9.65948 23.906 9.66913 23.9804 9.69805ZM23.3653 9.72055L23.443 9.74948C23.4041 9.76233 23.375 9.76233 23.3459 9.74948L23.3653 9.72055ZM22.4685 9.90375L22.339 9.88768C22.3778 9.87482 22.4199 9.87804 22.4685 9.90375ZM22.19 9.90375L22.1544 9.97124L22.0767 9.93589L22.19 9.90375ZM21.9699 9.88447L22.0411 9.91982L21.8566 10.0034L21.9699 9.88447ZM21.9116 10.148L21.8954 10.1834L21.8371 10.1994C21.8501 10.1802 21.876 10.1641 21.9116 10.148ZM21.6493 9.95196L21.7789 9.96803C21.74 9.97767 21.7109 9.97767 21.6882 9.96803L21.5781 10.0034L21.6493 9.95196ZM21.5004 10.0548L21.4292 10.103L21.3903 10.0869L21.5004 10.0548ZM21.2803 10.0387L21.1313 10.1384C21.0536 10.103 20.9824 10.0998 20.9047 10.1223L20.9824 10.0741L21.1508 10.103L21.2803 10.0387ZM20.9047 9.62413L21.0342 9.6402L20.8853 9.65627L20.9047 9.62413ZM20.4288 10.2187C20.4709 10.1962 20.5421 10.1802 20.6425 10.1673L20.3252 10.3151L20.2539 10.2862C20.3284 10.2637 20.3867 10.2412 20.4288 10.2187ZM20.513 10.3987L20.4935 10.4341C20.4709 10.4244 20.4547 10.4244 20.4482 10.4341C20.4417 10.4437 20.432 10.4469 20.4191 10.4373C20.4385 10.4373 20.4579 10.4212 20.4773 10.3859L20.513 10.3987ZM20.3835 10.4662L20.364 10.5016L20.3446 10.4501L20.3835 10.4662ZM20.1762 10.2541L20.0467 10.3184L20.1439 10.238L20.1762 10.2541ZM19.5449 9.93268C19.6291 9.91661 19.7165 9.88447 19.8039 9.84268L20.1018 9.80733C20.0241 9.82983 19.914 9.86518 19.7651 9.91018C19.6161 9.95517 19.5061 9.98731 19.4284 10.0098L19.2989 9.99696C19.3766 9.97124 19.4575 9.94875 19.5449 9.93268ZM19.8816 10.3698C19.8428 10.3826 19.8007 10.3762 19.7521 10.3537L19.6388 10.3891L19.7683 10.3248L19.8816 10.3698ZM19.5838 10.6494L19.4737 10.6848C19.5093 10.6751 19.5352 10.659 19.5449 10.6333L19.5838 10.6494ZM18.988 10.553L19.2276 10.4533L19.2665 10.4694L19.2471 10.5048L18.8942 10.6365L18.988 10.553ZM18.6708 10.1255L18.8003 10.1416L18.4279 10.2219L18.6708 10.1255ZM18.8391 10.6526L18.5413 10.688C18.6157 10.6623 18.7129 10.6526 18.8391 10.6526ZM18.3761 10.7426C18.3697 10.7458 18.3697 10.7458 18.3632 10.749C18.3567 10.7619 18.3405 10.7619 18.3179 10.749C18.3373 10.7426 18.3567 10.7426 18.3761 10.7426ZM18.1657 10.2734L18.1463 10.3087L18.0362 10.3441L18.1657 10.2734ZM17.5149 10.4405L17.7221 10.4116L17.4437 10.4919L17.5149 10.4405ZM15.3911 11.154C15.5012 11.1251 15.5627 11.0929 15.5789 11.0737L15.7278 11.0576L15.8184 10.9772L15.9479 10.9901C15.9609 10.9708 16.0159 10.9258 16.1163 10.8583L16.2652 10.8422L16.3203 10.8262C16.4692 10.7812 16.5987 10.7362 16.7023 10.688C16.8091 10.6365 16.9419 10.6333 17.1038 10.6783L17.1232 10.643L17.3272 10.5273L17.3077 10.5626L17.1038 10.6783C17.0163 10.7233 16.8901 10.7683 16.7217 10.8197C16.5534 10.868 16.4206 10.8712 16.3203 10.8262C16.3073 10.8487 16.2911 10.8519 16.2652 10.8422C16.1551 10.8776 16.0839 10.9162 16.058 10.9579L15.9479 10.9933L15.7246 11.0608C15.6145 11.0961 15.5432 11.1315 15.5173 11.1765C15.4332 11.1669 15.3555 11.1861 15.2939 11.244L15.3911 11.154ZM14.9637 11.3372L15.1709 11.2215L15.2421 11.2569L14.9637 11.3372C14.9022 11.3951 14.831 11.4143 14.7403 11.4047L14.9637 11.3372ZM12.3963 12.5135C12.3833 12.536 12.3833 12.5521 12.3963 12.5553C12.4093 12.5617 12.4093 12.5746 12.3963 12.5971L12.3251 12.5682C12.3574 12.5489 12.3833 12.536 12.3963 12.5135ZM7.71149 16.5407L7.67264 16.5246C7.63379 16.5343 7.5917 16.531 7.54314 16.5085L7.67264 16.5246C7.70825 16.4603 7.75358 16.4089 7.80215 16.3768L7.71149 16.5407ZM8.3234 16.0329C8.34606 15.9879 8.37844 15.9622 8.41405 15.9493C8.39139 15.9911 8.35901 16.0168 8.3234 16.0329ZM8.64068 15.7983L8.65687 15.7629L8.78637 15.779L8.64068 15.7983ZM9.38209 15.3001L9.40152 15.2712L9.47274 15.3001C9.44037 15.3161 9.40799 15.3161 9.38209 15.3001ZM9.88392 14.9915C9.92277 14.9787 9.96486 14.9851 10.0134 15.0044L9.88392 14.9915ZM11.2081 14.2941L11.0203 14.3744L10.8714 14.4773L10.7225 14.4934L10.6318 14.6605L10.4829 14.6766L10.4052 14.7248C10.4311 14.6798 10.4926 14.6541 10.593 14.6444L10.6836 14.4773L10.8325 14.4612L11.0203 14.3777L11.2437 14.233L11.2081 14.2941ZM11.3538 14.1109C11.37 14.0916 11.3926 14.0723 11.4315 14.0627L11.561 14.0755L11.3538 14.1109ZM12.2312 13.7156C12.1308 13.7799 12.0596 13.8313 12.0078 13.8634H11.9107C11.8621 13.8988 11.82 13.9181 11.7812 13.9277C11.7455 13.9406 11.7002 13.9631 11.6517 13.9952L11.8783 13.8473L12.0272 13.8313L12.3413 13.5999L12.4708 13.6127C12.4092 13.6159 12.3283 13.6481 12.2312 13.7156ZM13.0632 12.1471L13.1409 12.1825C13.0762 12.1825 13.0406 12.1921 13.0276 12.2178C13.0147 12.2371 12.9888 12.2564 12.9564 12.2693L12.8269 12.2532C12.9467 12.25 13.0276 12.2146 13.0632 12.1471ZM13.0859 13.3492L12.8269 13.4006L12.8981 13.3492L13.0471 13.3331L13.5877 13.0342L13.0859 13.3492ZM13.7334 11.8675L13.6622 11.9189C13.6849 11.8739 13.7172 11.8482 13.7528 11.8354L13.8241 11.8707H13.7334V11.8675ZM13.9762 11.7679H14.0734L13.905 11.8161L13.9762 11.7679ZM13.905 12.8864L14.1446 12.7032L14.2741 12.7192L13.905 12.8864ZM14.4457 12.671C14.4586 12.6517 14.4748 12.6453 14.504 12.6549L14.4457 12.671ZM14.5784 11.4593C14.572 11.4593 14.5655 11.4625 14.5622 11.469C14.5558 11.4786 14.5396 11.4786 14.5137 11.469C14.5363 11.4593 14.559 11.4593 14.5784 11.4593ZM18.2078 11.6104C18.2207 11.5879 18.2304 11.5815 18.2466 11.5847C18.2596 11.5911 18.2693 11.5847 18.2855 11.5622L18.3211 11.5783L18.2078 11.6104ZM19.6971 11.1926L19.7165 11.1572L19.7554 11.1733L19.6971 11.1926ZM20.5907 11.0126C20.6036 10.9901 20.6166 10.9837 20.6295 10.9869C20.6425 10.9933 20.6522 10.9869 20.6684 10.9644L20.704 10.9804L20.5907 11.0126ZM26.2208 10.1094L26.2759 10.0934L26.3147 10.1094C26.2726 10.1191 26.2435 10.1191 26.2208 10.1094ZM26.3406 10.1159C26.3471 10.1159 26.3536 10.1127 26.3568 10.1062C26.3633 10.0966 26.3795 10.0966 26.4021 10.1062C26.3795 10.1159 26.3601 10.1159 26.3406 10.1159ZM27.9141 9.90696L27.8753 9.89089C27.4414 10.0034 26.9849 10.058 26.5057 10.0484C26.0266 10.0452 25.5636 10.0548 25.1168 10.0773C23.8898 10.1673 22.5688 10.3344 21.1572 10.5819C19.7489 10.8262 18.47 11.1636 17.3304 11.5911C16.8966 11.7615 16.4595 11.9414 16.0192 12.1503C15.5789 12.3528 15.1159 12.4975 14.6335 12.5907L14.6141 12.6196C14.5882 12.61 14.572 12.6099 14.5687 12.6228C14.5623 12.6324 14.5461 12.6324 14.5202 12.6228L14.6335 12.5875C14.8925 12.3978 15.1742 12.25 15.4688 12.1311C15.7666 12.0154 16.0742 11.8997 16.3818 11.7936C17.8322 11.2536 19.3442 10.8294 20.9079 10.5305C22.4717 10.2284 24.029 10.0227 25.583 9.91339C25.9683 9.89089 26.3439 9.8684 26.713 9.85233C27.0756 9.83626 27.4673 9.84911 27.8753 9.89089L27.9335 9.87482L27.9141 9.90696ZM27.9303 9.05204L28.0986 9.00061L28.1375 9.01668L27.9303 9.05204ZM19.9788 11.604L19.8492 11.6715L19.8298 11.7068L19.9982 11.6554L20.0176 11.62L19.9788 11.604ZM20.6684 11.4529C20.6554 11.4754 20.6295 11.4947 20.5971 11.5043C20.6327 11.4947 20.6619 11.4947 20.6878 11.5043L20.7072 11.469L20.6684 11.4529ZM21.0569 11.4208L21.1151 11.4047C21.0892 11.3918 21.0731 11.4015 21.0569 11.4208ZM23.5174 11.019L23.498 11.0544L23.5369 11.0704L23.5174 11.019ZM24.7995 9.15488H24.9841C24.9323 9.13239 24.874 9.1356 24.7995 9.15488Z" fill="url(#paint0_linear_102_1838)"/>
<path d="M34.9365 9.34773V0.518839H36.7139L40.7415 6.50976V0.518839H42.5189V9.34452H40.7415L36.7139 3.36646V9.34452H34.9365V9.34773Z" fill="#F6F6F6"/>
<path d="M47.3073 9.49877C46.663 9.49877 46.0932 9.36057 45.5979 9.09059C45.1025 8.8174 44.714 8.43493 44.4356 7.94319C44.1571 7.45144 44.0179 6.88256 44.0179 6.23333C44.0179 5.57767 44.1539 4.99593 44.4291 4.48812C44.7043 3.98031 45.0895 3.57855 45.5849 3.28287C46.0802 2.98718 46.6598 2.84255 47.3202 2.84255C47.9548 2.84255 48.5117 2.98075 48.9908 3.25715C49.47 3.53356 49.8423 3.9096 50.1078 4.37884C50.3733 4.8513 50.5093 5.39126 50.5093 6.00514C50.5093 6.0887 50.506 6.18191 50.5028 6.28154C50.4996 6.38118 50.4866 6.49045 50.4704 6.60937H45.287V5.5391H48.7027C48.6768 5.15342 48.5344 4.84488 48.2786 4.61347C48.0196 4.38206 47.699 4.26635 47.3202 4.26635C47.0321 4.26635 46.7699 4.33385 46.5335 4.46884C46.2972 4.60383 46.1094 4.79988 45.9734 5.06021C45.8374 5.32055 45.7694 5.65159 45.7694 6.05656V6.42296C45.7694 6.75079 45.8342 7.04005 45.9605 7.28753C46.0867 7.53501 46.2648 7.72785 46.4947 7.86284C46.7245 7.99782 46.99 8.06532 47.2943 8.06532C47.5987 8.06532 47.8512 8.00104 48.0487 7.87569C48.2462 7.75035 48.3984 7.58643 48.4987 7.38395H50.315C50.1952 7.77927 49.9945 8.13603 49.7128 8.45421C49.4279 8.7724 49.0847 9.02952 48.6768 9.21593C48.2721 9.40556 47.8156 9.49877 47.3073 9.49877Z" fill="#F6F6F6"/>
<path d="M50.8395 9.34772L53.1512 6.16906L50.8395 2.9904H52.7562L54.2811 5.12129L55.7931 2.9904H57.7L55.3884 6.16906L57.7 9.34772H55.7931L54.2811 7.20397L52.7562 9.34772H50.8395Z" fill="#F6F6F6"/>
<path d="M61.5463 12.2725C60.9376 12.2725 60.4034 12.1985 59.9469 12.0507C59.4904 11.9028 59.1375 11.6811 58.885 11.3822C58.6357 11.0833 58.5094 10.7169 58.5094 10.2798C58.5094 9.97765 58.5871 9.69161 58.7457 9.42163C58.9011 9.15165 59.1343 8.91382 59.4386 8.70169C59.7429 8.49278 60.1152 8.30958 60.5556 8.15852L61.2031 9.04238C60.8146 9.16129 60.5329 9.31235 60.3581 9.49555C60.1832 9.68197 60.0991 9.88123 60.0991 10.0998C60.0991 10.2862 60.1638 10.4405 60.2901 10.5658C60.4164 10.6912 60.5879 10.7876 60.8049 10.8487C61.0218 10.9097 61.2646 10.9419 61.5365 10.9419C61.7988 10.9419 62.0287 10.9097 62.2229 10.8487C62.4172 10.7844 62.5693 10.6912 62.6794 10.5658C62.7895 10.4405 62.8445 10.2926 62.8445 10.1255C62.8445 9.8973 62.7668 9.71732 62.6147 9.58233C62.4625 9.44734 62.1485 9.36378 61.6758 9.33164C61.2516 9.2995 60.8728 9.24807 60.5394 9.18701C60.2059 9.12273 59.9113 9.0488 59.6555 8.95881C59.403 8.87203 59.1828 8.7724 59.0015 8.66312C58.8202 8.55385 58.6778 8.44457 58.5774 8.33529V8.04603L59.9501 6.5708L61.2063 6.96291L59.5681 8.57634L60.0893 7.69249C60.1832 7.74391 60.2739 7.79213 60.3613 7.83712C60.4487 7.88212 60.562 7.9239 60.698 7.96247C60.834 8.00104 61.0088 8.03318 61.2257 8.0621C61.4427 8.09103 61.7146 8.12317 62.0449 8.15531C62.605 8.20673 63.0615 8.30958 63.4176 8.46385C63.7737 8.61813 64.0392 8.83347 64.2108 9.10023C64.3856 9.37021 64.4698 9.69804 64.4698 10.0837C64.4698 10.463 64.3662 10.8165 64.159 11.1508C63.9518 11.4818 63.6313 11.7518 63.2007 11.9575C62.7668 12.1696 62.2164 12.2725 61.5463 12.2725ZM61.5592 7.48037C61.025 7.48037 60.5653 7.37752 60.1735 7.17182C59.785 6.96612 59.4872 6.68972 59.2767 6.33939C59.0695 5.99228 58.9659 5.59695 58.9659 5.15985C58.9659 4.73238 59.0695 4.34349 59.2767 3.99316C59.4839 3.64605 59.7818 3.36321 60.1735 3.1543C60.5653 2.94539 61.025 2.83933 61.5592 2.83933C62.0999 2.83933 62.5661 2.94539 62.9514 3.1543C63.3367 3.36321 63.6313 3.64283 63.8352 3.99316C64.0392 4.34349 64.1396 4.73238 64.1396 5.15985C64.1396 5.59695 64.0392 5.98906 63.8352 6.33939C63.6313 6.68972 63.3367 6.96612 62.9514 7.17182C62.5661 7.37752 62.1031 7.48037 61.5592 7.48037ZM61.5592 6.14334C61.8733 6.14334 62.129 6.06298 62.3265 5.89907C62.524 5.73516 62.6244 5.4941 62.6244 5.1727C62.6244 4.85452 62.524 4.61025 62.3265 4.44634C62.129 4.28242 61.87 4.19886 61.5592 4.19886C61.2484 4.19886 60.9894 4.27921 60.7854 4.44634C60.5815 4.61346 60.4811 4.8513 60.4811 5.1727C60.4811 5.49089 60.5815 5.73516 60.7854 5.89907C60.9894 6.06298 61.2484 6.14334 61.5592 6.14334ZM62.6147 4.22778L62.3362 2.99039H64.9781V4.0253L62.6147 4.22778Z" fill="#F6F6F6"/>
<path d="M69.2323 9.49877C68.588 9.49877 68.0182 9.36057 67.5229 9.09059C67.0275 8.82061 66.639 8.43493 66.3606 7.94319C66.0821 7.45144 65.9429 6.88256 65.9429 6.23333C65.9429 5.57767 66.0789 4.99593 66.3573 4.48812C66.6325 3.98031 67.0178 3.57855 67.5132 3.28287C68.0085 2.98718 68.588 2.84255 69.2485 2.84255C69.8831 2.84255 70.4399 2.98075 70.9191 3.25715C71.3983 3.53356 71.7706 3.9096 72.0361 4.37884C72.3016 4.8513 72.4375 5.39126 72.4375 6.00514C72.4375 6.0887 72.4343 6.18191 72.4311 6.28154C72.4278 6.38118 72.4149 6.49045 72.3987 6.60937H67.2153V5.5391H70.631C70.605 5.15342 70.4626 4.84488 70.2068 4.61347C69.9478 4.38206 69.6273 4.26635 69.2485 4.26635C68.9604 4.26635 68.6981 4.33385 68.4618 4.46884C68.2254 4.60383 68.0376 4.79988 67.9017 5.06021C67.7657 5.32055 67.6977 5.65159 67.6977 6.05656V6.42296C67.6977 6.75079 67.7624 7.04005 67.8887 7.28753C68.015 7.53501 68.193 7.72785 68.4229 7.86284C68.6528 7.99782 68.9183 8.06532 69.2226 8.06532C69.5269 8.06532 69.7795 8.00104 69.977 7.87569C70.1744 7.75035 70.3266 7.58643 70.427 7.38395H72.2433C72.1235 7.77927 71.9228 8.13603 71.6411 8.45421C71.3562 8.7724 71.013 9.02952 70.605 9.21593C70.1971 9.40556 69.7406 9.49877 69.2323 9.49877Z" fill="#F6F6F6"/>
<path d="M73.8297 9.34771V2.99039H75.3935L75.5197 4.0253C75.714 3.67176 75.9924 3.38571 76.3518 3.16716C76.7112 2.94861 77.145 2.83933 77.6533 2.83933C78.1778 2.83933 78.6246 2.95182 78.9872 3.17359C79.3498 3.39535 79.6282 3.71675 79.8193 4.13779C80.0103 4.55883 80.1042 5.07628 80.1042 5.69016V9.34771H78.3397V5.85407C78.3397 5.36554 78.2361 4.9895 78.0289 4.72596C77.8217 4.46241 77.4914 4.32742 77.0446 4.32742C76.7727 4.32742 76.5266 4.3917 76.3065 4.52347C76.0863 4.65525 75.9147 4.83845 75.7917 5.0795C75.6687 5.32055 75.6071 5.60981 75.6071 5.95692V9.34771H73.8297Z" fill="#F6F6F6"/>
<path d="M34.9365 20.2754V11.4497H36.7139V20.2754H34.9365Z" fill="#F6F6F6"/>
<path d="M38.4169 20.2754V13.9213H39.9806L40.1069 14.9562C40.3012 14.6026 40.5796 14.3166 40.939 14.098C41.2983 13.8795 41.7322 13.7702 42.2405 13.7702C42.765 13.7702 43.2118 13.8827 43.5744 14.1045C43.937 14.3262 44.2154 14.6476 44.4064 15.0687C44.5974 15.4897 44.6913 16.0071 44.6913 16.621V20.2786H42.9269V16.7817C42.9269 16.2932 42.8232 15.9172 42.616 15.6536C42.4088 15.3901 42.0818 15.2551 41.6318 15.2551C41.3599 15.2551 41.1138 15.3193 40.8936 15.4511C40.6735 15.5829 40.5019 15.7661 40.3789 16.0071C40.2558 16.2482 40.1943 16.5375 40.1943 16.8846V20.2754H38.4169Z" fill="#F6F6F6"/>
<path d="M46.3037 20.2754V13.9213H47.8674L47.9937 14.9562C48.1879 14.6026 48.4664 14.3166 48.8257 14.098C49.1851 13.8795 49.619 13.7702 50.1273 13.7702C50.6518 13.7702 51.0985 13.8827 51.4612 14.1045C51.8238 14.3262 52.1022 14.6476 52.2932 15.0687C52.4842 15.4897 52.5781 16.0071 52.5781 16.621V20.2786H50.8136V16.7817C50.8136 16.2932 50.71 15.9172 50.5028 15.6536C50.2956 15.3901 49.9686 15.2551 49.5186 15.2551C49.2466 15.2551 49.0006 15.3193 48.7804 15.4511C48.5603 15.5829 48.3887 15.7661 48.2656 16.0071C48.1426 16.2482 48.0811 16.5375 48.0811 16.8846V20.2754H46.3037Z" fill="#F6F6F6"/>
<path d="M57.2273 20.4264C56.6186 20.4264 56.0683 20.285 55.5761 20.0054C55.084 19.7225 54.6987 19.3304 54.4138 18.8258C54.1289 18.3212 53.9897 17.7491 53.9897 17.1096C53.9897 16.4539 54.1322 15.8754 54.4138 15.3708C54.6987 14.8662 55.084 14.4741 55.5761 14.1912C56.0683 13.9084 56.6219 13.7702 57.2403 13.7702C57.8587 13.7702 58.4123 13.9116 58.9044 14.1912C59.3965 14.4741 59.7818 14.863 60.0667 15.3643C60.3516 15.8657 60.4908 16.441 60.4908 17.0967C60.4908 17.7524 60.3484 18.3309 60.0602 18.8323C59.7721 19.3337 59.3836 19.7225 58.8979 20.0054C58.4123 20.2882 57.8554 20.4264 57.2273 20.4264ZM57.2273 18.903C57.5057 18.903 57.7518 18.8355 57.9655 18.7005C58.1759 18.5655 58.3475 18.363 58.4803 18.0963C58.613 17.8263 58.6778 17.4952 58.6778 17.0999C58.6778 16.7046 58.613 16.3735 58.4867 16.1036C58.3605 15.8336 58.1889 15.6343 57.972 15.4993C57.7551 15.3643 57.5122 15.2969 57.2403 15.2969C56.978 15.2969 56.7352 15.3643 56.5151 15.4993C56.2949 15.6343 56.1201 15.8368 55.9938 16.1036C55.8675 16.3735 55.8028 16.7046 55.8028 17.0999C55.8028 17.4952 55.8675 17.8263 55.9938 18.0963C56.1201 18.3662 56.2917 18.5687 56.5086 18.7005C56.7255 18.8323 56.9651 18.903 57.2273 18.903Z" fill="#F6F6F6"/>
<path d="M63.3625 20.2754L61.038 13.9213H62.906L64.4569 18.6105L66.0206 13.9213H67.8628L65.5382 20.2754H63.3625Z" fill="#F6F6F6"/>
<path d="M70.6698 20.4264C70.1453 20.4264 69.705 20.3396 69.3553 20.1693C69.0024 19.9957 68.7467 19.7675 68.5816 19.4751C68.4164 19.1858 68.3323 18.8644 68.3323 18.5109C68.3323 18.1316 68.4294 17.7974 68.6236 17.5017C68.8179 17.206 69.119 16.9778 69.5269 16.8074C69.9349 16.6403 70.4432 16.5567 71.0518 16.5567H72.6285C72.6285 16.2546 72.5897 16.0039 72.5088 15.8079C72.4278 15.6118 72.3016 15.4608 72.1267 15.3611C71.9519 15.2615 71.722 15.2101 71.4339 15.2101C71.1198 15.2101 70.8543 15.2776 70.6407 15.4126C70.4237 15.5475 70.291 15.75 70.2392 16.0168H68.5103C68.5621 15.5636 68.7143 15.1715 68.9668 14.8372C69.2226 14.5062 69.5625 14.2459 69.9899 14.0562C70.4173 13.8666 70.9029 13.7734 71.4436 13.7734C72.0458 13.7734 72.567 13.873 73.0106 14.0755C73.4541 14.278 73.7973 14.5673 74.0401 14.9465C74.283 15.3258 74.4028 15.7918 74.4028 16.3446V20.2786H72.9037L72.6998 19.3208C72.6156 19.4879 72.5088 19.6422 72.376 19.774C72.2433 19.909 72.0943 20.0247 71.926 20.1211C71.7576 20.2175 71.5666 20.2946 71.3594 20.3493C71.1522 20.4007 70.9223 20.4264 70.6698 20.4264ZM71.1004 19.0669C71.3108 19.0669 71.5019 19.0315 71.6735 18.9608C71.8418 18.8901 71.9875 18.7873 72.1041 18.6523C72.2239 18.5173 72.321 18.363 72.3954 18.1927C72.4699 18.0223 72.5217 17.8327 72.5476 17.6302V17.6174H71.2655C71.0195 17.6174 70.8187 17.6495 70.6633 17.7106C70.5079 17.7749 70.3914 17.8616 70.3137 17.9741C70.236 18.0866 70.2003 18.2152 70.2003 18.3598C70.2003 18.5109 70.2392 18.6426 70.3137 18.7519C70.3914 18.8612 70.495 18.9415 70.631 18.993C70.7669 19.0412 70.9223 19.0669 71.1004 19.0669Z" fill="#F6F6F6"/>
<path d="M78.848 20.2754C78.3979 20.2754 78.003 20.2047 77.6598 20.06C77.3166 19.9186 77.0511 19.6808 76.8666 19.3529C76.6788 19.0251 76.5881 18.5784 76.5881 18.0159V15.3933H75.4841V13.918H76.5881L76.7792 12.1664H78.3526V13.918H80.0297V15.3933H78.3656V18.0288C78.3656 18.3052 78.4271 18.5012 78.5501 18.6073C78.6731 18.7166 78.8836 18.7712 79.1782 18.7712H80.0167V20.2721H78.848V20.2754Z" fill="#F6F6F6"/>
<path d="M84.3616 20.4264C83.7529 20.4264 83.2025 20.285 82.7104 20.0054C82.2183 19.7225 81.833 19.3304 81.5481 18.8258C81.2632 18.3212 81.124 17.7491 81.124 17.1096C81.124 16.4539 81.2665 15.8754 81.5481 15.3708C81.833 14.8662 82.2183 14.4741 82.7104 14.1912C83.2025 13.9084 83.7562 13.7702 84.3745 13.7702C84.9929 13.7702 85.5466 13.9116 86.0387 14.1912C86.5308 14.4741 86.9161 14.863 87.201 15.3643C87.4859 15.8657 87.6251 16.441 87.6251 17.0967C87.6251 17.7524 87.4794 18.3309 87.1945 18.8323C86.9063 19.3337 86.5178 19.7225 86.0322 20.0054C85.5433 20.285 84.9865 20.4264 84.3616 20.4264ZM84.3616 18.903C84.64 18.903 84.8861 18.8355 85.0998 18.7005C85.3102 18.5655 85.4818 18.363 85.6145 18.0963C85.7473 17.8263 85.812 17.4952 85.812 17.0999C85.812 16.7046 85.7473 16.3735 85.621 16.1036C85.4948 15.8336 85.3232 15.6343 85.1063 15.4993C84.8893 15.3643 84.6465 15.2969 84.3745 15.2969C84.1123 15.2969 83.8695 15.3643 83.6493 15.4993C83.4292 15.6343 83.2543 15.8368 83.1281 16.1036C83.0018 16.3735 82.9371 16.7046 82.9371 17.0999C82.9371 17.4952 83.0018 17.8263 83.1281 18.0963C83.2543 18.3662 83.4259 18.5687 83.6429 18.7005C83.8598 18.8323 84.0994 18.903 84.3616 18.903Z" fill="#F6F6F6"/>
<path d="M89.1015 20.2754V13.9213H90.6749L90.84 15.0944C91.0019 14.818 91.1962 14.5801 91.4228 14.3873C91.6527 14.1944 91.9182 14.0434 92.2225 13.9341C92.5268 13.8248 92.8571 13.7702 93.2132 13.7702V15.6375H92.6175C92.365 15.6375 92.1286 15.6665 91.9117 15.7243C91.6948 15.7822 91.5102 15.8786 91.3516 16.0071C91.1962 16.1389 91.0764 16.3157 90.9955 16.5375C90.9145 16.7592 90.8757 17.0388 90.8757 17.3763V20.2754H89.1015Z" fill="#F6F6F6"/>
<path d="M96.9753 20.4264C96.3828 20.4264 95.8713 20.3332 95.4374 20.1436C95.0036 19.954 94.6669 19.6968 94.4208 19.3754C94.1748 19.0508 94.0323 18.6844 93.9902 18.273H95.7677C95.8 18.4241 95.868 18.5623 95.9651 18.6812C96.0623 18.8033 96.195 18.903 96.3601 18.9769C96.5253 19.054 96.7228 19.0894 96.9494 19.0894C97.1695 19.0894 97.3508 19.0572 97.4901 18.9962C97.6293 18.9351 97.7361 18.8516 97.8073 18.7487C97.8786 18.6491 97.9142 18.5398 97.9142 18.4209C97.9142 18.2537 97.8624 18.122 97.762 18.0288C97.6617 17.9356 97.5127 17.8616 97.3185 17.8006C97.1242 17.7427 96.8911 17.6881 96.6192 17.6367C96.3148 17.5692 96.017 17.4952 95.7223 17.4085C95.4277 17.3217 95.1687 17.2124 94.9356 17.0742C94.7025 16.936 94.518 16.7624 94.382 16.5503C94.246 16.3414 94.178 16.0811 94.178 15.7693C94.178 15.3901 94.2816 15.0494 94.4888 14.7473C94.696 14.4451 94.9971 14.2041 95.3921 14.0273C95.7871 13.8505 96.2565 13.7638 96.8102 13.7638C97.5904 13.7638 98.2056 13.9373 98.6588 14.2877C99.1121 14.638 99.3808 15.1104 99.465 15.705H97.7879C97.7458 15.5218 97.639 15.3772 97.4706 15.2776C97.3023 15.1779 97.0757 15.1265 96.7972 15.1265C96.5091 15.1265 96.2857 15.1779 96.1303 15.2776C95.9749 15.3772 95.8939 15.5122 95.8939 15.6825C95.8939 15.7918 95.9457 15.8914 96.0461 15.9782C96.1465 16.065 96.2954 16.1421 96.4832 16.2064C96.6742 16.2707 96.9073 16.3318 97.189 16.3896C97.6876 16.4893 98.1246 16.605 98.4969 16.7367C98.8693 16.8685 99.1607 17.0517 99.3743 17.2928C99.5848 17.5338 99.6916 17.8777 99.6916 18.3341C99.7013 18.7358 99.5913 19.099 99.3679 19.4172C99.1445 19.7354 98.8272 19.9861 98.4225 20.1597C98.0178 20.3396 97.5354 20.4264 96.9753 20.4264Z" fill="#F6F6F6"/>
<path d="M101.942 20.3396C101.621 20.3396 101.359 20.24 101.155 20.044C100.951 19.8479 100.851 19.6101 100.851 19.3304C100.851 19.0444 100.951 18.8066 101.155 18.6105C101.359 18.4177 101.621 18.3212 101.942 18.3212C102.262 18.3212 102.525 18.4177 102.729 18.6105C102.932 18.8034 103.033 19.0444 103.033 19.3304C103.033 19.6069 102.932 19.8447 102.729 20.044C102.528 20.24 102.262 20.3396 101.942 20.3396Z" fill="#1177FE"/>
<path d="M35.2181 27.8958V23.6308H36.6783C37.1736 23.6308 37.5848 23.7208 37.9118 23.8943C38.2388 24.0711 38.4816 24.3186 38.6403 24.6368C38.7989 24.955 38.8766 25.331 38.8766 25.7617C38.8766 26.1892 38.7989 26.562 38.6403 26.8834C38.4816 27.2048 38.242 27.4523 37.915 27.629C37.5913 27.8058 37.1769 27.8926 36.6718 27.8926H35.2181V27.8958ZM36.0761 27.163H36.6297C36.9729 27.163 37.2449 27.1084 37.4423 26.9959C37.6398 26.8834 37.7823 26.7227 37.8697 26.5138C37.9571 26.3049 37.9992 26.0542 37.9992 25.7617C37.9992 25.4692 37.9571 25.2185 37.8697 25.0096C37.7823 24.8007 37.6431 24.64 37.4423 24.5243C37.2416 24.4086 36.9729 24.354 36.6297 24.354H36.0761V27.163Z" fill="#F6F6F6"/>
<path d="M39.5565 27.8958V24.8264H40.3173L40.3983 25.3921C40.476 25.2571 40.5699 25.1446 40.68 25.0514C40.79 24.9582 40.9195 24.8843 41.0652 24.8328C41.2141 24.7814 41.3728 24.7525 41.5444 24.7525V25.6524H41.2562C41.1332 25.6524 41.0199 25.6653 40.9163 25.6942C40.8127 25.7231 40.722 25.7681 40.6476 25.8324C40.5731 25.8967 40.5148 25.9802 40.476 26.0895C40.4371 26.1988 40.4177 26.3306 40.4177 26.4945V27.8958H39.5565Z" fill="#F6F6F6"/>
<path d="M42.5383 24.4279C42.3829 24.4279 42.2567 24.3829 42.1595 24.2897C42.0624 24.1965 42.0138 24.0872 42.0138 23.9522C42.0138 23.814 42.0624 23.7015 42.1595 23.6115C42.2567 23.5215 42.3829 23.4765 42.5383 23.4765C42.6937 23.4765 42.82 23.5215 42.9204 23.6115C43.0175 23.7015 43.0661 23.814 43.0661 23.9522C43.0661 24.0872 43.0175 24.1997 42.9204 24.2897C42.82 24.3829 42.6937 24.4279 42.5383 24.4279ZM42.1077 27.8958V24.8264H42.9657V27.8958H42.1077Z" fill="#F6F6F6"/>
<path d="M44.6039 27.8958L43.4805 24.8264H44.3838L45.1317 27.0923L45.886 24.8264H46.7764L45.6529 27.8958H44.6039Z" fill="#F6F6F6"/>
<path d="M47.7282 24.4279C47.5728 24.4279 47.4465 24.3829 47.3494 24.2897C47.2523 24.1965 47.2037 24.0872 47.2037 23.9522C47.2037 23.814 47.2523 23.7015 47.3494 23.6115C47.4465 23.5215 47.5728 23.4765 47.7282 23.4765C47.8836 23.4765 48.0099 23.5215 48.1102 23.6115C48.2074 23.7015 48.2559 23.814 48.2559 23.9522C48.2559 24.0872 48.2074 24.1997 48.1102 24.2897C48.0099 24.3829 47.8836 24.4279 47.7282 24.4279ZM47.2976 27.8958V24.8264H48.1556V27.8958H47.2976Z" fill="#F6F6F6"/>
<path d="M48.9779 27.8958V24.8264H49.7323L49.7938 25.3246C49.8877 25.1542 50.0204 25.016 50.1952 24.91C50.3701 24.8039 50.5773 24.7525 50.8233 24.7525C51.0759 24.7525 51.2928 24.8071 51.4676 24.9132C51.6425 25.0192 51.7784 25.1767 51.8691 25.3792C51.9597 25.5817 52.0083 25.8324 52.0083 26.1281V27.8958H51.1568V26.2084C51.1568 25.9738 51.1083 25.7906 51.0079 25.662C50.9075 25.5335 50.7489 25.4692 50.532 25.4692C50.4025 25.4692 50.2827 25.5013 50.1758 25.5624C50.069 25.6267 49.988 25.7135 49.9265 25.8292C49.865 25.9449 49.8391 26.0863 49.8391 26.2534V27.8926H48.9779V27.8958Z" fill="#F6F6F6"/>
<path d="M54.1257 29.3067C53.8311 29.3067 53.5721 29.2714 53.3519 29.2007C53.1317 29.13 52.9602 29.0207 52.8404 28.8793C52.7206 28.7379 52.6591 28.5579 52.6591 28.3458C52.6591 28.1979 52.6979 28.0629 52.7724 27.9312C52.8468 27.7994 52.9602 27.6869 53.1059 27.584C53.2548 27.4812 53.4328 27.3944 53.6465 27.3205L53.9606 27.748C53.7728 27.8058 53.6368 27.8765 53.5526 27.9665C53.4685 28.0565 53.4264 28.1529 53.4264 28.259C53.4264 28.349 53.4587 28.4229 53.517 28.484C53.5785 28.545 53.6627 28.59 53.7663 28.6222C53.8699 28.6511 53.9897 28.6672 54.1192 28.6672C54.2455 28.6672 54.3556 28.6511 54.4495 28.6222C54.5433 28.5932 54.6178 28.545 54.6696 28.484C54.7214 28.4229 54.7505 28.3522 54.7505 28.2718C54.7505 28.1626 54.7149 28.0758 54.6405 28.0115C54.566 27.9472 54.4138 27.9054 54.1872 27.8894C53.9832 27.8733 53.7987 27.8508 53.6368 27.8187C53.4749 27.7865 53.3325 27.7512 53.2094 27.7094C53.0864 27.6676 52.9828 27.6194 52.8922 27.5648C52.8048 27.5133 52.7368 27.4587 52.685 27.4073V27.2659L53.3487 26.5523L53.9573 26.742L53.1674 27.523L53.4199 27.0955C53.4652 27.1212 53.5073 27.1437 53.5526 27.1662C53.5947 27.1887 53.6498 27.208 53.7145 27.2273C53.7793 27.2466 53.8634 27.2626 53.9703 27.2755C54.0771 27.2883 54.2066 27.3044 54.3653 27.3205C54.634 27.3462 54.8574 27.3944 55.029 27.4683C55.2006 27.5423 55.3268 27.6451 55.411 27.7769C55.4952 27.9054 55.5373 28.0661 55.5373 28.2526C55.5373 28.4358 55.4855 28.6061 55.3884 28.7668C55.288 28.9275 55.1326 29.0561 54.9254 29.1557C54.7149 29.2585 54.4494 29.3067 54.1257 29.3067ZM54.1322 26.9927C53.8732 26.9927 53.653 26.9444 53.462 26.8448C53.271 26.7452 53.1285 26.6102 53.0281 26.4431C52.9278 26.2759 52.8792 26.0863 52.8792 25.8742C52.8792 25.6685 52.9278 25.4789 53.0281 25.3117C53.1285 25.1446 53.271 25.0096 53.462 24.9068C53.653 24.8039 53.8732 24.7557 54.1322 24.7557C54.3944 24.7557 54.6178 24.8071 54.8056 24.9068C54.9901 25.0096 55.1326 25.1446 55.2329 25.3117C55.3333 25.4789 55.3819 25.6685 55.3819 25.8742C55.3819 26.0863 55.3333 26.2759 55.2329 26.4431C55.1358 26.6102 54.9934 26.7452 54.8056 26.8448C54.6178 26.9444 54.3944 26.9927 54.1322 26.9927ZM54.1322 26.3466C54.2843 26.3466 54.4074 26.3081 54.5045 26.2277C54.6016 26.1474 54.6502 26.0317 54.6502 25.8774C54.6502 25.7231 54.6016 25.6074 54.5045 25.5271C54.4074 25.4467 54.2843 25.4081 54.1322 25.4081C53.98 25.4081 53.857 25.4467 53.7566 25.5271C53.6595 25.6074 53.6109 25.7231 53.6109 25.8774C53.6109 26.0317 53.6595 26.1474 53.7566 26.2277C53.8537 26.3081 53.98 26.3466 54.1322 26.3466ZM54.6405 25.421L54.5045 24.8232H55.7801V25.3214L54.6405 25.421Z" fill="#F6F6F6"/>
<path d="M57.9072 27.8958V23.6308H59.3674C59.8627 23.6308 60.2739 23.7208 60.6009 23.8943C60.9279 24.0711 61.1707 24.3186 61.3293 24.6368C61.488 24.955 61.5657 25.331 61.5657 25.7617C61.5657 26.1892 61.488 26.562 61.3293 26.8834C61.1707 27.2048 60.9311 27.4523 60.6041 27.629C60.2771 27.8058 59.8659 27.8926 59.3609 27.8926H57.9072V27.8958ZM58.7652 27.163H59.3188C59.662 27.163 59.9339 27.1084 60.1314 26.9959C60.3289 26.8834 60.4714 26.7227 60.5588 26.5138C60.6462 26.3049 60.6883 26.0542 60.6883 25.7617C60.6883 25.4692 60.6462 25.2185 60.5588 25.0096C60.4746 24.8007 60.3322 24.64 60.1314 24.5243C59.9339 24.4118 59.662 24.354 59.3188 24.354H58.7652V27.163Z" fill="#F6F6F6"/>
<path d="M62.6924 24.4279C62.537 24.4279 62.4107 24.3829 62.3136 24.2897C62.2165 24.1997 62.1679 24.0872 62.1679 23.9522C62.1679 23.814 62.2165 23.7015 62.3136 23.6115C62.4107 23.5215 62.5402 23.4765 62.6924 23.4765C62.8478 23.4765 62.974 23.5215 63.0744 23.6115C63.1715 23.7015 63.2201 23.814 63.2201 23.9522C63.2201 24.0872 63.1715 24.1997 63.0744 24.2897C62.974 24.3829 62.8478 24.4279 62.6924 24.4279ZM62.2618 27.8958V24.8264H63.1197V27.8958H62.2618Z" fill="#F6F6F6"/>
<path d="M65.2792 29.3067C64.9846 29.3067 64.7256 29.2714 64.5054 29.2007C64.2853 29.13 64.1137 29.0207 63.9939 28.8793C63.8741 28.7347 63.8126 28.5579 63.8126 28.3458C63.8126 28.1979 63.8514 28.0629 63.9259 27.9312C64.0004 27.8026 64.1137 27.6869 64.2594 27.584C64.4083 27.4812 64.5864 27.3944 64.8 27.3205L65.1141 27.748C64.9263 27.8058 64.7903 27.8765 64.7062 27.9665C64.622 28.0565 64.5799 28.1529 64.5799 28.259C64.5799 28.349 64.609 28.4229 64.6706 28.484C64.7321 28.545 64.8162 28.59 64.9198 28.6222C65.0234 28.6543 65.1432 28.6672 65.2727 28.6672C65.399 28.6672 65.5091 28.6511 65.603 28.6222C65.6969 28.5932 65.7713 28.545 65.8231 28.484C65.8749 28.4229 65.9041 28.3522 65.9041 28.2718C65.9041 28.1626 65.8685 28.0758 65.794 28.0115C65.7195 27.9472 65.5674 27.9054 65.3407 27.8894C65.1368 27.8733 64.9522 27.8508 64.7903 27.8187C64.6285 27.7865 64.486 27.7512 64.363 27.7094C64.2399 27.6676 64.1363 27.6194 64.0457 27.5648C63.9583 27.5133 63.8903 27.4587 63.8385 27.4073V27.2659L64.5022 26.5523L65.1109 26.742L64.3209 27.523L64.5734 27.0955C64.6187 27.1212 64.6608 27.1437 64.7062 27.1662C64.7482 27.1887 64.8033 27.208 64.868 27.2273C64.9328 27.2466 65.017 27.2626 65.1238 27.2755C65.2307 27.2883 65.3602 27.3044 65.5188 27.3205C65.7875 27.3462 66.0109 27.3944 66.1825 27.4683C66.3541 27.5423 66.4804 27.6451 66.5645 27.7769C66.6487 27.9054 66.6908 28.0661 66.6908 28.2526C66.6908 28.4358 66.639 28.6061 66.5419 28.7668C66.4415 28.9275 66.2861 29.0561 66.0789 29.1557C65.8685 29.2585 65.603 29.3067 65.2792 29.3067ZM65.2857 26.9927C65.0267 26.9927 64.8065 26.9444 64.6155 26.8448C64.4245 26.7452 64.282 26.6102 64.1817 26.4431C64.0813 26.2759 64.0327 26.0863 64.0327 25.8742C64.0327 25.6685 64.0813 25.4789 64.1817 25.3117C64.282 25.1446 64.4245 25.0096 64.6155 24.9068C64.8065 24.8039 65.0267 24.7557 65.2857 24.7557C65.5479 24.7557 65.7713 24.8071 65.9591 24.9068C66.1469 25.0064 66.2861 25.1446 66.3865 25.3117C66.4836 25.4789 66.5354 25.6685 66.5354 25.8742C66.5354 26.0863 66.4868 26.2759 66.3865 26.4431C66.2893 26.6102 66.1469 26.7452 65.9591 26.8448C65.7713 26.9444 65.5479 26.9927 65.2857 26.9927ZM65.2857 26.3466C65.4379 26.3466 65.5609 26.3081 65.658 26.2277C65.7551 26.1474 65.8037 26.0317 65.8037 25.8774C65.8037 25.7231 65.7551 25.6074 65.658 25.5271C65.5609 25.4467 65.4379 25.4081 65.2857 25.4081C65.1335 25.4081 65.0105 25.4467 64.9101 25.5271C64.813 25.6074 64.7612 25.7231 64.7612 25.8774C64.7612 26.0317 64.8098 26.1474 64.9101 26.2277C65.0105 26.3081 65.1335 26.3466 65.2857 26.3466ZM65.794 25.421L65.658 24.8232H66.9336V25.3214L65.794 25.421Z" fill="#F6F6F6"/>
<path d="M68.07 24.4279C67.9146 24.4279 67.7884 24.3829 67.6912 24.2897C67.5941 24.1997 67.5423 24.0872 67.5423 23.9522C67.5423 23.814 67.5909 23.7015 67.6912 23.6115C67.7884 23.5215 67.9146 23.4765 68.07 23.4765C68.2254 23.4765 68.3517 23.5215 68.4488 23.6115C68.546 23.7015 68.5977 23.814 68.5977 23.9522C68.5977 24.0872 68.5492 24.1997 68.4488 24.2897C68.3485 24.3797 68.2254 24.4279 68.07 24.4279ZM67.6427 27.8958V24.8264H68.5006V27.8958H67.6427Z" fill="#F6F6F6"/>
<path d="M70.7281 27.8958C70.5112 27.8958 70.3201 27.8604 70.155 27.7929C69.9899 27.7254 69.8604 27.6097 69.773 27.4523C69.6823 27.2948 69.637 27.0794 69.637 26.8062V25.5399H69.1028V24.8264H69.637L69.7277 23.9811H70.4885V24.8264H71.2979V25.5399H70.495V26.8127C70.495 26.9477 70.5241 27.0409 70.5824 27.0923C70.6407 27.1437 70.7443 27.1726 70.8867 27.1726H71.2914V27.8958H70.7281Z" fill="#F6F6F6"/>
<path d="M73.0462 27.9665C72.7937 27.9665 72.58 27.9247 72.4116 27.8412C72.2433 27.7576 72.117 27.6451 72.0361 27.5069C71.9552 27.3655 71.9163 27.2112 71.9163 27.0409C71.9163 26.8577 71.9649 26.697 72.0588 26.5523C72.1526 26.4109 72.2983 26.2984 72.4926 26.2181C72.6868 26.1377 72.9329 26.0959 73.2275 26.0959H73.9884C73.9884 25.9481 73.9689 25.8292 73.9301 25.7328C73.8912 25.6363 73.8297 25.5656 73.7455 25.5174C73.6614 25.4692 73.5513 25.4435 73.4121 25.4435C73.2599 25.4435 73.1336 25.4756 73.03 25.5399C72.9264 25.6042 72.8617 25.7038 72.8358 25.8324H72.0005C72.0264 25.6138 72.0976 25.4242 72.2206 25.2635C72.3437 25.1028 72.5088 24.9775 72.716 24.8875C72.9232 24.7975 73.1563 24.7493 73.4185 24.7493C73.7099 24.7493 73.9625 24.7975 74.1761 24.8939C74.3898 24.9903 74.5549 25.1317 74.6747 25.3149C74.7913 25.4981 74.8496 25.7231 74.8496 25.9899V27.8894H74.1243L74.0272 27.4265C73.9851 27.5069 73.9333 27.5808 73.8718 27.6451C73.8071 27.7094 73.7358 27.7672 73.6549 27.8122C73.574 27.8604 73.4833 27.8958 73.3829 27.9215C73.2826 27.9472 73.1693 27.9665 73.0462 27.9665ZM73.2567 27.3108C73.3603 27.3108 73.4509 27.2948 73.5319 27.2594C73.6128 27.2241 73.684 27.1758 73.7391 27.1116C73.7941 27.0473 73.8427 26.9734 73.8815 26.8898C73.9171 26.8062 73.943 26.7162 73.956 26.6198V26.6134H73.3376C73.2178 26.6134 73.1207 26.6295 73.0462 26.6584C72.9718 26.6873 72.9135 26.7323 72.8779 26.787C72.8422 26.8416 72.8228 26.9027 72.8228 26.9734C72.8228 27.0473 72.8422 27.1084 72.8779 27.163C72.9135 27.2176 72.9653 27.253 73.03 27.2787C73.0948 27.3044 73.1693 27.3108 73.2567 27.3108Z" fill="#F6F6F6"/>
<path d="M75.6233 27.8958V23.5087H76.4813V27.8926H75.6233V27.8958Z" fill="#F6F6F6"/>
<path d="M80.661 27.9665C80.2304 27.9665 79.8614 27.8733 79.5505 27.6901C79.2397 27.5069 79.0001 27.2466 78.8318 26.9155C78.6634 26.5845 78.5793 26.202 78.5793 25.7681C78.5793 25.3342 78.6634 24.9518 78.8318 24.6175C79.0001 24.2832 79.2397 24.0261 79.5505 23.8365C79.8614 23.6469 80.2304 23.5569 80.661 23.5569C81.179 23.5569 81.6064 23.6886 81.9431 23.9458C82.2798 24.2061 82.487 24.5725 82.568 25.0417H81.6226C81.574 24.8136 81.4672 24.64 81.2988 24.5146C81.1337 24.3893 80.9168 24.3282 80.6448 24.3282C80.3956 24.3282 80.1819 24.3861 80.0038 24.5018C79.8257 24.6175 79.6898 24.7846 79.5959 24.9967C79.502 25.2121 79.4534 25.4692 79.4534 25.7649C79.4534 26.0606 79.502 26.3145 79.5959 26.5298C79.6898 26.742 79.8257 26.9059 80.0038 27.0248C80.1819 27.1437 80.3956 27.1984 80.6448 27.1984C80.9136 27.1984 81.1305 27.1405 81.2956 27.0248C81.4575 26.9091 81.5676 26.7484 81.6194 26.5395H82.5647C82.4838 26.983 82.2734 27.3301 81.9399 27.584C81.6064 27.8412 81.179 27.9665 80.661 27.9665Z" fill="#F6F6F6"/>
<path d="M83.2511 27.8958V23.5087H84.1091V25.2764C84.2062 25.1189 84.3422 24.9903 84.5105 24.8971C84.6789 24.8007 84.8764 24.7525 85.103 24.7525C85.362 24.7525 85.5789 24.8071 85.7538 24.9132C85.9286 25.0193 86.0646 25.1767 86.1552 25.3824C86.2459 25.5881 86.2945 25.8388 86.2945 26.1409V27.8958H85.443V26.2213C85.443 25.9802 85.3912 25.797 85.2908 25.6685C85.1904 25.5399 85.0318 25.4724 84.8181 25.4724C84.6821 25.4724 84.5623 25.5046 84.4523 25.5688C84.3454 25.6331 84.2612 25.7263 84.1997 25.842C84.1414 25.961 84.1123 26.1024 84.1123 26.2695V27.8958H83.2511Z" fill="#F6F6F6"/>
<path d="M88.1075 27.9665C87.855 27.9665 87.6413 27.9247 87.473 27.8412C87.3046 27.7576 87.1783 27.6451 87.0974 27.5069C87.0164 27.3655 86.9776 27.2112 86.9776 27.0409C86.9776 26.8577 87.0262 26.697 87.1201 26.5523C87.214 26.4109 87.3596 26.2984 87.5571 26.2181C87.7546 26.1377 87.9974 26.0959 88.2921 26.0959H89.0529C89.0529 25.9481 89.0335 25.8292 88.9946 25.7328C88.9558 25.6363 88.8943 25.5656 88.8101 25.5174C88.7259 25.4692 88.6158 25.4435 88.4766 25.4435C88.3244 25.4435 88.1982 25.4756 88.0946 25.5399C87.991 25.6042 87.9262 25.7038 87.9003 25.8324H87.065C87.0909 25.6138 87.1621 25.4242 87.2852 25.2635C87.4082 25.1028 87.5733 24.9775 87.7805 24.8875C87.9877 24.7975 88.2208 24.7493 88.4831 24.7493C88.7745 24.7493 89.027 24.7975 89.2407 24.8939C89.4544 24.9903 89.6195 25.1317 89.736 25.3149C89.8526 25.4981 89.9109 25.7231 89.9109 25.9899V27.8894H89.1856L89.0885 27.4265C89.0464 27.5069 88.9946 27.5808 88.9331 27.6451C88.8684 27.7094 88.7971 27.7672 88.7162 27.8122C88.6353 27.8604 88.5446 27.8958 88.4442 27.9215C88.3439 27.9472 88.2305 27.9665 88.1075 27.9665ZM88.318 27.3108C88.4216 27.3108 88.5122 27.2948 88.5932 27.2594C88.6741 27.2241 88.7453 27.1758 88.8004 27.1116C88.8554 27.0473 88.904 26.9734 88.9428 26.8898C88.9784 26.8062 89.0043 26.7162 89.0173 26.6198V26.6134H88.3989C88.2791 26.6134 88.182 26.6295 88.1075 26.6584C88.0331 26.6873 87.9748 26.7323 87.9392 26.787C87.9036 26.8416 87.8841 26.9027 87.8841 26.9734C87.8841 27.0473 87.9036 27.1084 87.9392 27.163C87.9748 27.2176 88.0266 27.253 88.0913 27.2787C88.1561 27.3044 88.2305 27.3108 88.318 27.3108Z" fill="#F6F6F6"/>
<path d="M90.6846 27.8958V24.8264H91.439L91.5005 25.3246C91.5944 25.1542 91.7272 25.016 91.902 24.91C92.0768 24.8039 92.284 24.7525 92.5301 24.7525C92.7826 24.7525 92.9995 24.8071 93.1744 24.9132C93.3492 25.0192 93.4852 25.1767 93.5758 25.3792C93.6665 25.5817 93.715 25.8324 93.715 26.1281V27.8958H92.8636V26.2084C92.8636 25.9738 92.815 25.7906 92.7146 25.662C92.6143 25.5335 92.4556 25.4692 92.2387 25.4692C92.1092 25.4692 91.9894 25.5013 91.8826 25.5624C91.7757 25.6267 91.6948 25.7135 91.6333 25.8292C91.575 25.9449 91.5426 26.0863 91.5426 26.2534V27.8926H90.6846V27.8958Z" fill="#F6F6F6"/>
<path d="M95.8324 29.3067C95.5378 29.3067 95.2788 29.2714 95.0586 29.2007C94.8385 29.13 94.6669 29.0207 94.5471 28.8793C94.4273 28.7347 94.3658 28.5579 94.3658 28.3458C94.3658 28.1979 94.4046 28.0629 94.4791 27.9312C94.5536 27.7994 94.6669 27.6869 94.8126 27.584C94.9583 27.4812 95.1396 27.3944 95.3532 27.3205L95.6673 27.748C95.4795 27.8058 95.3435 27.8765 95.2594 27.9665C95.1752 28.0565 95.1331 28.1529 95.1331 28.259C95.1331 28.349 95.1622 28.4229 95.2237 28.484C95.2853 28.545 95.3694 28.59 95.473 28.6222C95.5766 28.6543 95.6932 28.6672 95.8259 28.6672C95.9522 28.6672 96.0623 28.6511 96.1562 28.6222C96.2501 28.5932 96.3245 28.545 96.3763 28.484C96.4281 28.4229 96.4573 28.3522 96.4573 28.2718C96.4573 28.1626 96.4217 28.0758 96.3472 28.0115C96.2727 27.9472 96.1206 27.9054 95.8939 27.8894C95.6899 27.8733 95.5054 27.8508 95.3435 27.8187C95.1817 27.7865 95.0392 27.7512 94.9162 27.7094C94.7931 27.6676 94.6863 27.6194 94.5989 27.5648C94.5115 27.5133 94.4435 27.4587 94.3949 27.4073V27.2659L95.0586 26.5523L95.6673 26.742L94.8773 27.523L95.1299 27.0955C95.1752 27.1212 95.2205 27.1437 95.2626 27.1662C95.3047 27.1887 95.3597 27.208 95.4245 27.2273C95.4892 27.2466 95.5734 27.2626 95.6802 27.2755C95.7871 27.2883 95.9166 27.3044 96.0752 27.3205C96.344 27.3462 96.5674 27.3944 96.7389 27.4683C96.9105 27.5423 97.04 27.6451 97.121 27.7769C97.2052 27.9054 97.2472 28.0661 97.2472 28.2526C97.2472 28.4358 97.1954 28.6061 97.0983 28.7668C97.0012 28.9275 96.8425 29.0561 96.6353 29.1557C96.4217 29.2585 96.1562 29.3067 95.8324 29.3067ZM95.8389 26.9927C95.5799 26.9927 95.3597 26.9444 95.1687 26.8448C94.9777 26.7452 94.8352 26.6102 94.7349 26.4431C94.6345 26.2759 94.5859 26.0863 94.5859 25.8742C94.5859 25.6685 94.6345 25.4789 94.7349 25.3117C94.8352 25.1446 94.9777 25.0096 95.1687 24.9068C95.3597 24.8039 95.5799 24.7557 95.8389 24.7557C96.1011 24.7557 96.3245 24.8071 96.5123 24.9068C96.6968 25.0096 96.8393 25.1446 96.9397 25.3117C97.0368 25.4789 97.0854 25.6685 97.0854 25.8742C97.0854 26.0863 97.0368 26.2759 96.9397 26.4431C96.8425 26.6102 96.7001 26.7452 96.5123 26.8448C96.3245 26.9444 96.1011 26.9927 95.8389 26.9927ZM95.8389 26.3466C95.9911 26.3466 96.1141 26.3081 96.2112 26.2277C96.3083 26.1474 96.3569 26.0317 96.3569 25.8774C96.3569 25.7231 96.3083 25.6074 96.2112 25.5271C96.1141 25.4467 95.9911 25.4081 95.8389 25.4081C95.6867 25.4081 95.5637 25.4467 95.4633 25.5271C95.3662 25.6074 95.3144 25.7231 95.3144 25.8774C95.3144 26.0317 95.363 26.1474 95.4633 26.2277C95.5637 26.3081 95.6867 26.3466 95.8389 26.3466ZM96.3472 25.421L96.2112 24.8232H97.4868V25.3214L96.3472 25.421Z" fill="#F6F6F6"/>
<path d="M99.546 27.9665C99.2351 27.9665 98.9599 27.899 98.7204 27.7672C98.4808 27.6355 98.293 27.449 98.1603 27.2144C98.0243 26.9766 97.9563 26.7034 97.9563 26.3884C97.9563 26.0702 98.0243 25.7906 98.157 25.5463C98.2898 25.3021 98.4775 25.106 98.7139 24.9646C98.9535 24.8232 99.2319 24.7525 99.5524 24.7525C99.86 24.7525 100.129 24.82 100.359 24.9518C100.588 25.0835 100.77 25.2667 100.899 25.4949C101.029 25.7231 101.094 25.9835 101.094 26.2791C101.094 26.3209 101.094 26.3659 101.09 26.4141C101.087 26.4623 101.084 26.517 101.074 26.5716H98.5714V26.0542H100.223C100.21 25.8677 100.142 25.7199 100.019 25.6074C99.8956 25.4949 99.7402 25.4403 99.5557 25.4403C99.4165 25.4403 99.2902 25.4724 99.1769 25.5367C99.0636 25.601 98.9729 25.6974 98.9082 25.8228C98.8434 25.9481 98.811 26.1088 98.811 26.3049V26.4816C98.811 26.6391 98.8402 26.7805 98.9017 26.8994C98.9632 27.0184 99.0506 27.1116 99.1607 27.1759C99.2708 27.2401 99.4003 27.2723 99.546 27.2723C99.6917 27.2723 99.8147 27.2433 99.9118 27.1823C100.009 27.1212 100.08 27.0409 100.129 26.9444H101.006C100.948 27.1341 100.851 27.3076 100.715 27.4619C100.579 27.6162 100.41 27.7383 100.216 27.8315C100.012 27.9215 99.7888 27.9665 99.546 27.9665Z" fill="#F6F6F6"/>
<path d="M102.152 27.9247C101.997 27.9247 101.871 27.8765 101.773 27.7801C101.676 27.6837 101.624 27.5712 101.624 27.4362C101.624 27.298 101.673 27.1823 101.773 27.0891C101.871 26.9959 101.997 26.9477 102.152 26.9477C102.308 26.9477 102.434 26.9927 102.531 27.0891C102.628 27.1823 102.68 27.298 102.68 27.4362C102.68 27.5712 102.631 27.6837 102.531 27.7801C102.434 27.8765 102.308 27.9247 102.152 27.9247Z" fill="#F6F6F6"/>
<path d="M32.9032 0.763088H32.191V31.5244H32.9032V0.763088Z" fill="#1177FE"/>
</g>
</g>
<defs>
<linearGradient id="paint0_linear_102_1838" x1="125.63" y1="-0.924809" x2="105.871" y2="53.1465" gradientUnits="userSpaceOnUse">
<stop stop-color="#04ACEB"/>
<stop offset="1" stop-color="#5E44E6"/>
</linearGradient>
</defs>
</svg>
